<svg width="23" height="24" viewBox="0 0 23 24" fill="none" xmlns="http://www.w3.org/2000/svg">
<path d="M22.6883 18.0479L22.5784 22.6081C22.5643 23.0089 22.419 23.3381 22.1425 23.5959C21.8659 23.8537 21.5273 23.9756 21.1266 23.9615C18.0668 23.9711 15.2 23.3648 12.5262 22.1425C9.85241 20.9201 7.56493 19.2892 5.66377 17.2498C3.7626 15.2103 2.30012 12.8184 1.27632 10.0742C0.252526 7.32989 -0.155364 4.42333 0.0526538 1.35449C0.0667189 0.953748 0.212022 0.624485 0.48856 0.3667C0.765098 0.108916 1.10374 -0.0129448 1.50448 0.00112034L6.06116 0.211203C6.42851 0.224096 6.73763 0.347794 6.98853 0.582295C7.23944 0.816797 7.38378 1.11025 7.42157 1.46266L7.94353 6.59673C7.96872 6.83167 7.94441 7.04816 7.87059 7.24618C7.79676 7.44421 7.67343 7.62378 7.5006 7.7849L4.54509 10.54C4.94993 11.3901 5.41408 12.2172 5.93756 13.0213C6.46104 13.8255 7.06112 14.5905 7.7378 15.3164C8.41449 16.0423 9.13555 16.6945 9.901 17.2731C10.6664 17.8517 11.459 18.3727 12.2786 18.8361L15.2341 16.081C15.407 15.9199 15.5947 15.8095 15.7975 15.7497C16.0002 15.69 16.2178 15.6809 16.4504 15.7225L21.5353 16.6031C21.8842 16.6655 22.1668 16.8301 22.3831 17.0968C22.5994 17.3635 22.7012 17.6806 22.6883 18.0479ZM15.0416 20.1368C15.7681 20.3963 16.5174 20.6024 17.2894 20.7548C18.0615 20.9073 18.8885 21.0408 19.7706 21.1554L19.8409 19.1517L16.649 18.6384L15.0416 20.1368ZM3.49317 7.64424L5.0487 6.19421L4.76048 2.9742L2.80862 2.85554C2.82648 3.77567 2.88872 4.62212 2.99535 5.3949C3.10197 6.16767 3.26791 6.91746 3.49317 7.64424Z" fill="white"/>
</svg>
