<svg width="40" height="38" viewBox="0 0 40 38" fill="none" xmlns="http://www.w3.org/2000/svg">
<path d="M8.74996 2.75182e-08C8.53393 -4.52948e-05 8.32159 0.0558945 8.13362 0.162364C7.94566 0.268833 7.78849 0.422197 7.67746 0.6075L0.177458 13.1075C0.0443211 13.3299 -0.0163706 13.5882 0.00378514 13.8467C0.0239409 14.1051 0.123947 14.3509 0.289957 14.55L19.04 37.05C19.1573 37.1907 19.3041 37.3039 19.47 37.3815C19.6359 37.4592 19.8168 37.4994 20 37.4994C20.1831 37.4994 20.3641 37.4592 20.53 37.3815C20.6959 37.3039 20.8426 37.1907 20.96 37.05L39.71 14.55C39.876 14.3509 39.976 14.1051 39.9961 13.8467C40.0163 13.5882 39.9556 13.3299 39.8225 13.1075L32.3225 0.6075C32.2114 0.422197 32.0543 0.268833 31.8663 0.162364C31.6783 0.0558945 31.466 -4.52948e-05 31.25 2.75182e-08H8.74996ZM3.45746 12.5L9.45746 2.5H14.405L10.405 12.5H3.45746ZM10.395 15L16.0625 29.5725L3.91996 15H10.395ZM20 32.8L13.0775 15H26.9225L20 32.8ZM13.0975 12.5L17.0975 2.5H22.9025L26.9025 12.5H13.0975ZM29.5975 12.5L25.5975 2.5H30.5425L36.5425 12.5H29.5975ZM29.605 15H36.08L23.9375 29.5725L29.605 15Z" fill="white"/>
</svg>
