<svg width="38" height="50" viewBox="0 0 38 50" fill="none" xmlns="http://www.w3.org/2000/svg">
<path d="M20.8056 19.5172C21.1493 18.4859 22.6056 18.4859 22.9493 19.5172L24.965 25.5703C25.4086 26.901 26.1561 28.11 27.1482 29.1015C28.1403 30.093 29.3497 30.8399 30.6806 31.2828L36.7306 33.2984C37.7618 33.6422 37.7618 35.0984 36.7306 35.4422L30.6775 37.4578C29.3468 37.9015 28.1378 38.649 27.1463 39.6411C26.1547 40.6332 25.4079 41.8426 24.965 43.1734L22.9493 49.2234C22.8752 49.4493 22.7317 49.6459 22.5392 49.7853C22.3467 49.9247 22.1151 49.9998 21.8775 49.9998C21.6398 49.9998 21.4082 49.9247 21.2157 49.7853C21.0232 49.6459 20.8797 49.4493 20.8056 49.2234L18.79 43.1703C18.3466 41.84 17.5996 40.6312 16.6081 39.6397C15.6165 38.6482 14.4078 37.9012 13.0775 37.4578L7.02433 35.4422C6.79852 35.3681 6.60188 35.2245 6.46246 35.0321C6.32305 34.8396 6.24799 34.608 6.24799 34.3703C6.24799 34.1327 6.32305 33.9011 6.46246 33.7086C6.60188 33.5161 6.79852 33.3726 7.02433 33.2984L13.0775 31.2828C14.4078 30.8395 15.6165 30.0924 16.6081 29.1009C17.5996 28.1094 18.3466 26.9006 18.79 25.5703L20.8056 19.5172ZM8.73371 3.58282C8.77852 3.44749 8.86484 3.32972 8.98041 3.24626C9.09597 3.16279 9.2349 3.11786 9.37746 3.11786C9.52002 3.11786 9.65895 3.16279 9.77451 3.24626C9.89008 3.32972 9.9764 3.44749 10.0212 3.58282L11.2306 7.21407C11.7712 8.83282 13.04 10.1016 14.6587 10.6422L18.29 11.8516C18.4253 11.8964 18.5431 11.9827 18.6265 12.0983C18.71 12.2138 18.7549 12.3528 18.7549 12.4953C18.7549 12.6379 18.71 12.7768 18.6265 12.8924C18.5431 13.0079 18.4253 13.0943 18.29 13.1391L14.6587 14.3484C13.8599 14.6136 13.134 15.0615 12.5388 15.6567C11.9437 16.2518 11.4957 16.9777 11.2306 17.7766L10.0212 21.4078C9.9764 21.5432 9.89008 21.6609 9.77451 21.7444C9.65895 21.8279 9.52002 21.8728 9.37746 21.8728C9.2349 21.8728 9.09597 21.8279 8.98041 21.7444C8.86484 21.6609 8.77852 21.5432 8.73371 21.4078L7.52433 17.7766C7.25921 16.9777 6.81124 16.2518 6.21609 15.6567C5.62093 15.0615 4.89504 14.6136 4.09621 14.3484L0.46496 13.1391C0.32963 13.0943 0.211864 13.0079 0.128395 12.8924C0.0449261 12.7768 0 12.6379 0 12.4953C0 12.3528 0.0449261 12.2138 0.128395 12.0983C0.211864 11.9827 0.32963 11.8964 0.46496 11.8516L4.09621 10.6422C4.89504 10.3771 5.62093 9.9291 6.21609 9.33395C6.81124 8.73879 7.25921 8.0129 7.52433 7.21407L8.73371 3.58282ZM30.8243 0.304696C30.8552 0.215715 30.913 0.138558 30.9897 0.0839507C31.0664 0.0293435 31.1583 0 31.2525 0C31.3466 0 31.4385 0.0293435 31.5152 0.0839507C31.5919 0.138558 31.6497 0.215715 31.6806 0.304696L32.4868 2.72345C32.8462 3.8047 33.6931 4.65157 34.7743 5.01095L37.1931 5.8172C37.2821 5.84804 37.3592 5.90585 37.4138 5.98258C37.4684 6.05931 37.4978 6.15114 37.4978 6.24532C37.4978 6.3395 37.4684 6.43133 37.4138 6.50806C37.3592 6.58479 37.2821 6.6426 37.1931 6.67345L34.7743 7.4797C34.242 7.65782 33.7582 7.95716 33.3613 8.35412C32.9643 8.75108 32.665 9.23482 32.4868 9.7672L31.6806 12.1859C31.6497 12.2749 31.5919 12.3521 31.5152 12.4067C31.4385 12.4613 31.3466 12.4906 31.2525 12.4906C31.1583 12.4906 31.0664 12.4613 30.9897 12.4067C30.913 12.3521 30.8552 12.2749 30.8243 12.1859L30.0181 9.7672C29.84 9.23482 29.5406 8.75108 29.1437 8.35412C28.7467 7.95716 28.263 7.65782 27.7306 7.4797L25.315 6.67345C25.226 6.6426 25.1488 6.58479 25.0942 6.50806C25.0396 6.43133 25.0103 6.3395 25.0103 6.24532C25.0103 6.15114 25.0396 6.05931 25.0942 5.98258C25.1488 5.90585 25.226 5.84804 25.315 5.8172L27.7337 5.01095C28.815 4.65157 29.6618 3.8047 30.0212 2.72345L30.8243 0.304696Z" fill="white"/>
</svg>
