<svg width="42" height="43" viewBox="0 0 42 43" fill="none" xmlns="http://www.w3.org/2000/svg">
<path d="M35.4167 38.7979H6.25V40.8813C6.25 41.4338 6.03051 41.9637 5.63981 42.3544C5.2491 42.7451 4.7192 42.9646 4.16667 42.9646H2.08333C1.5308 42.9646 1.00089 42.7451 0.610194 42.3544C0.219493 41.9637 0 41.4338 0 40.8813V22.1313L5.03542 13.7375C5.40561 13.1205 5.92928 12.6099 6.55541 12.2554C7.18154 11.9009 7.88881 11.7146 8.60833 11.7146H33.0583C33.7779 11.7146 34.4851 11.9009 35.1113 12.2554C35.7374 12.6099 36.2611 13.1205 36.6313 13.7375L41.6667 22.1313V40.8813C41.6667 41.4338 41.4472 41.9637 41.0565 42.3544C40.6658 42.7451 40.1359 42.9646 39.5833 42.9646H37.5C36.9475 42.9646 36.4176 42.7451 36.0269 42.3544C35.6362 41.9637 35.4167 41.4338 35.4167 40.8813V38.7979ZM4.85833 22.1313H36.8083L33.0583 15.8813H8.60833L4.85833 22.1313ZM9.375 32.5479C10.2038 32.5479 10.9987 32.2187 11.5847 31.6326C12.1708 31.0466 12.5 30.2517 12.5 29.4229C12.5 28.5941 12.1708 27.7993 11.5847 27.2132C10.9987 26.6272 10.2038 26.2979 9.375 26.2979C8.5462 26.2979 7.75134 26.6272 7.16529 27.2132C6.57924 27.7993 6.25 28.5941 6.25 29.4229C6.25 30.2517 6.57924 31.0466 7.16529 31.6326C7.75134 32.2187 8.5462 32.5479 9.375 32.5479ZM32.2917 32.5479C33.1205 32.5479 33.9153 32.2187 34.5014 31.6326C35.0874 31.0466 35.4167 30.2517 35.4167 29.4229C35.4167 28.5941 35.0874 27.7993 34.5014 27.2132C33.9153 26.6272 33.1205 26.2979 32.2917 26.2979C31.4629 26.2979 30.668 26.6272 30.082 27.2132C29.4959 27.7993 29.1667 28.5941 29.1667 29.4229C29.1667 30.2517 29.4959 31.0466 30.082 31.6326C30.668 32.2187 31.4629 32.5479 32.2917 32.5479ZM7.16667 2.21458L9.375 0.00208318L11.5833 2.21042C12.0205 2.64742 12.3182 3.20424 12.4388 3.81046C12.5595 4.41667 12.4977 5.04505 12.2612 5.61613C12.0247 6.1872 11.6241 6.67531 11.1102 7.01874C10.5963 7.36216 9.99207 7.54546 9.37396 7.54546C8.75585 7.54546 8.15163 7.36216 7.6377 7.01874C7.12378 6.67531 6.72324 6.1872 6.48675 5.61613C6.25025 5.04505 6.18842 4.41667 6.30907 3.81046C6.42973 3.20424 6.72745 2.64742 7.16458 2.21042M18.6229 2.21042L20.8333 0.00208318L23.0417 2.21042C23.4788 2.64742 23.7765 3.20424 23.8972 3.81046C24.0178 4.41667 23.956 5.04505 23.7195 5.61613C23.483 6.1872 23.0825 6.67531 22.5685 7.01874C22.0546 7.36216 21.4504 7.54546 20.8323 7.54546C20.2142 7.54546 19.61 7.36216 19.096 7.01874C18.5821 6.67531 18.1816 6.1872 17.9451 5.61613C17.7086 5.04505 17.6468 4.41667 17.7674 3.81046C17.8881 3.20424 18.1858 2.64742 18.6229 2.21042ZM30.0813 2.21042L32.2896 0L34.4979 2.20833C34.9351 2.64533 35.2328 3.20215 35.3534 3.80837C35.4741 4.41459 35.4123 5.04297 35.1758 5.61404C34.9393 6.18512 34.5387 6.67323 34.0248 7.01665C33.5109 7.36007 32.9067 7.54338 32.2885 7.54338C31.6704 7.54338 31.0662 7.36007 30.5523 7.01665C30.0384 6.67323 29.6378 6.18512 29.4013 5.61404C29.1648 5.04297 29.103 4.41459 29.2237 3.80837C29.3443 3.20215 29.642 2.64533 30.0792 2.20833" fill="white"/>
</svg>
