<svg width="42" height="42" viewBox="0 0 42 42" fill="none" xmlns="http://www.w3.org/2000/svg">
<path d="M0.105842 29.7614L0.000307409 12.2617C-0.0398962 5.59514 5.34401 0.145903 12.0106 0.105699L29.5102 0.000164616C32.7149 -0.0191576 35.7959 1.23534 38.0756 3.4877C40.3553 5.74006 41.6469 8.80577 41.6662 12.0104L41.7718 29.5101C41.812 36.1766 36.4281 41.6259 29.7615 41.6661L12.2618 41.7716C9.05718 41.7909 5.97612 40.5364 3.69643 38.2841C1.41674 36.0317 0.125168 32.966 0.105842 29.7614ZM4.27495 30.1529C4.28694 32.142 5.08861 34.0448 6.50359 35.4429C7.91857 36.8409 9.83095 37.6195 11.82 37.6075L30.153 37.497C34.2988 37.472 37.6327 34.0976 37.6077 29.9519L37.4971 11.6189C37.4851 9.62979 36.6835 7.72694 35.2685 6.32892C33.8535 4.93091 31.9411 4.15225 29.952 4.16424L11.619 4.2748C7.47326 4.29981 4.13938 7.67414 4.16439 11.8199L4.27495 30.1529ZM7.27865 10.0303C7.27448 9.3396 7.54485 8.67557 8.03027 8.18426C8.5157 7.69295 9.17641 7.41459 9.86707 7.41043C10.5577 7.40626 11.2217 7.67663 11.7131 8.16205C12.2044 8.64747 12.4827 9.30819 12.4869 9.99884C12.4911 10.6895 12.2207 11.3535 11.7353 11.8448C11.2498 12.3361 10.5891 12.6145 9.89847 12.6187C9.20782 12.6228 8.5438 12.3525 8.05248 11.867C7.56117 11.3816 7.28282 10.7209 7.27865 10.0303ZM10.4696 20.9487C10.4529 18.1861 11.5344 15.53 13.476 13.5647C15.4177 11.5995 18.0606 10.4861 20.8232 10.4694C23.5858 10.4528 26.2419 11.5342 28.2072 13.4759C30.1724 15.4176 31.2858 18.0605 31.3025 20.8231C31.3192 23.5857 30.2377 26.2418 28.296 28.207C26.3543 30.1723 23.7115 31.2857 20.9488 31.3024C18.1862 31.319 15.5301 30.2376 13.5649 28.2959C11.5996 26.3542 10.4862 23.7113 10.4696 20.9487ZM14.6361 20.9236C14.6461 22.5812 15.3142 24.1669 16.4933 25.3319C17.6725 26.4969 19.2661 27.1458 20.9237 27.1358C22.5813 27.1258 24.167 26.4577 25.332 25.2786C26.497 24.0994 27.1459 22.5058 27.1359 20.8482C27.1259 19.1906 26.4579 17.6049 25.2787 16.4399C24.0996 15.2749 22.5059 14.626 20.8483 14.636C19.1908 14.646 17.6051 15.3141 16.44 16.4932C15.275 17.6724 14.6261 19.266 14.6361 20.9236Z" fill="white"/>
</svg>
