<svg width="79" height="30" viewBox="0 0 79 30" fill="none" xmlns="http://www.w3.org/2000/svg">
<rect x="47.3572" y="1.42065" width="28.4143" height="28.4143" rx="14.2072" fill="white"/>
<path d="M64.0191 8.49281C64.1056 8.24986 63.9822 7.98081 63.7358 7.90479C62.7182 7.59089 61.6463 7.5006 60.5896 7.64194C59.3796 7.80378 58.2255 8.26453 57.2253 8.98502C56.225 9.7055 55.4083 10.6644 54.8445 11.7802C54.2808 12.896 53.9866 14.1357 53.9871 15.3939C53.9875 16.6521 54.2826 17.8916 54.8472 19.007C55.4118 20.1223 56.2292 21.0806 57.23 21.8003C58.2307 22.52 59.3852 22.9799 60.5953 23.1408C61.6521 23.2813 62.7239 23.1901 63.7413 22.8754C63.9876 22.7992 64.1109 22.5301 64.0242 22.2872L63.9501 22.0795C63.861 21.8296 63.5844 21.7035 63.33 21.7783C62.4906 22.0251 61.6096 22.0938 60.7406 21.9783C59.7121 21.8415 58.7307 21.4507 57.8801 20.8389C57.0295 20.2272 56.3347 19.4126 55.8547 18.4646C55.3748 17.5165 55.124 16.4629 55.1236 15.3935C55.1232 14.324 55.3733 13.2703 55.8525 12.3218C56.3317 11.3734 57.0259 10.5583 57.8761 9.94591C58.7263 9.3335 59.7073 8.94186 60.7358 8.80429C61.6047 8.68807 62.4857 8.75611 63.3253 9.00223C63.5798 9.07684 63.8563 8.95052 63.9452 8.70064L64.0191 8.49281Z" fill="black"/>
<path d="M66.3986 5.2561C66.5067 5.01792 66.4015 4.73628 66.1591 4.63804C64.5061 3.96809 62.7188 3.68745 60.936 3.82075C58.9955 3.96582 57.1227 4.59661 55.4899 5.65506C53.857 6.71351 52.5167 8.16562 51.592 9.87778C50.6674 11.5899 50.1882 13.5072 50.1987 15.453C50.2091 17.3988 50.7087 19.3108 51.6516 21.013C52.5944 22.7152 53.9503 24.1529 55.5943 25.1938C57.2384 26.2347 59.1178 26.8455 61.0597 26.9698C62.8439 27.084 64.6281 26.7843 66.2738 26.0967C66.5151 25.9959 66.6173 25.7131 66.5067 25.4761L66.1713 24.7573C66.0607 24.5203 65.7793 24.4189 65.5373 24.518C64.1567 25.0831 62.6638 25.3285 61.1709 25.233C59.5203 25.1273 57.9228 24.6082 56.5253 23.7234C55.1279 22.8386 53.9754 21.6165 53.174 20.1697C52.3725 18.7228 51.9478 17.0977 51.939 15.4437C51.9302 13.7897 52.3374 12.1601 53.1234 10.7048C53.9093 9.24942 55.0486 8.01513 56.4365 7.11545C57.8244 6.21576 59.4163 5.6796 61.0657 5.55628C62.5575 5.44475 64.0529 5.67416 65.4395 6.22453C65.6826 6.32103 65.9629 6.21667 66.0709 5.97848L66.3986 5.2561Z" fill="black"/>
<path d="M64.6086 16.372C64.6086 16.1104 64.3966 15.8984 64.135 15.8984H62.0378C61.7762 15.8984 61.5642 15.6864 61.5642 15.4249V15.3572C61.5642 15.0957 61.7762 14.8836 62.0378 14.8836H64.135C64.3966 14.8836 64.6086 14.6716 64.6086 14.4101V12.3128C64.6086 12.0513 64.8206 11.8392 65.0822 11.8392H65.1498C65.4114 11.8392 65.6234 12.0513 65.6234 12.3128V14.4101C65.6234 14.6716 65.8354 14.8836 66.097 14.8836H68.1942C68.4558 14.8836 68.6678 15.0957 68.6678 15.3572V15.4249C68.6678 15.6864 68.4558 15.8984 68.1942 15.8984H66.097C65.8354 15.8984 65.6234 16.1104 65.6234 16.372V18.4692C65.6234 18.7308 65.4114 18.9428 65.1498 18.9428H65.0822C64.8206 18.9428 64.6086 18.7308 64.6086 18.4692V16.372Z" fill="black"/>
<path d="M69.5969 27.0595C69.5969 28.1641 70.5138 29.0854 71.5623 28.738C73.2304 28.1853 74.7738 26.9355 76.0012 25.1064C77.6997 22.5753 78.1212 19.1423 78.1212 15.5627C78.1212 11.9831 77.6997 8.55019 76.0012 6.01904C74.7738 4.18999 73.2304 2.94012 71.5623 2.38747C70.5138 2.0401 69.5969 2.96135 69.5969 4.06592V8.79915C69.5969 9.90372 70.426 11.17 71.0383 12.0893C71.1956 12.3254 71.343 12.5602 71.4774 12.7605C71.9761 13.5037 72.2562 14.5117 72.2562 15.5627C72.2562 16.6138 71.9761 17.6218 71.4774 18.365C71.3939 18.4893 71.3056 18.612 71.2129 18.7303C70.5318 19.5999 69.5969 20.6924 69.5969 21.797V27.0595Z" fill="#D80000"/>
<ellipse cx="73.1814" cy="6.95053" rx="0.251224" ry="0.320527" fill="white"/>
<ellipse cx="75.0237" cy="7.80527" rx="0.251224" ry="0.320527" fill="white"/>
<ellipse cx="73.1814" cy="9.72836" rx="0.251224" ry="0.320527" fill="white"/>
<ellipse cx="75.0237" cy="10.7968" rx="0.251224" ry="0.320527" fill="white"/>
<ellipse cx="73.1814" cy="12.5064" rx="0.251224" ry="0.320527" fill="white"/>
<ellipse cx="75.0237" cy="13.7884" rx="0.251224" ry="0.320527" fill="white"/>
<ellipse cx="73.1814" cy="21.0538" rx="0.251224" ry="0.320527" fill="white"/>
<ellipse cx="73.1814" cy="23.8316" rx="0.251224" ry="0.320527" fill="white"/>
<ellipse cx="75.0237" cy="16.78" rx="0.251224" ry="0.320527" fill="white"/>
<ellipse cx="75.0237" cy="19.7716" rx="0.251224" ry="0.320527" fill="white"/>
<ellipse cx="73.1814" cy="18.2759" rx="0.251224" ry="0.320527" fill="white"/>
<path d="M43.8284 6.33517C43.5677 6.33178 43.3533 6.53974 43.3487 6.80041L43.015 25.8588C43.0104 26.1257 43.2272 26.3438 43.4942 26.3406L47.6138 26.2915C47.9464 26.2875 48.1714 25.9509 48.0479 25.6421L47.3572 23.9154L46.4345 21.8394C46.4183 21.8028 46.4068 21.7643 46.4002 21.7249L45.9365 18.9429L45.7035 16.1473C45.701 16.1168 45.7014 16.0861 45.7048 16.0557L46.1678 11.8889C46.1714 11.8559 46.1786 11.8234 46.189 11.7919L47.3463 8.30842C47.3536 8.28662 47.3624 8.26539 47.3727 8.24488L47.964 7.06978C48.1212 6.75722 47.8969 6.38793 47.5471 6.3834L43.8284 6.33517ZM41.9459 8.82418C41.9458 8.53514 41.6891 8.3136 41.4031 8.35584L30.83 9.9178C30.7134 9.93503 30.5832 9.94946 30.4904 9.87674C30.133 9.59672 29.3021 8.65305 29.0101 8.7797C28.9578 8.80241 28.9255 8.85544 28.8795 8.88924C27.551 9.8656 24.238 9.97086 21.7765 9.97086C19.406 9.97086 17.111 11.0915 14.9531 9.16102C14.8563 9.07444 14.7298 9.02501 14.6001 9.03074L12.87 9.10721C12.6168 9.1184 12.4173 9.32691 12.4173 9.58032V23.2784C12.4173 23.5323 12.6176 23.741 12.8713 23.7515L41.2042 24.9257C41.4669 24.9366 41.6883 24.7313 41.6971 24.4684L41.9003 18.4111C41.9091 18.1486 41.7027 17.9291 41.4401 17.9218L37.746 17.8194C37.4845 17.8121 37.2785 17.5943 37.2857 17.3329L37.2917 17.1187C37.2989 16.8573 37.5167 16.6512 37.7782 16.6585L41.4616 16.7606C41.7283 16.768 41.9484 16.5538 41.9483 16.2871L41.9459 8.82418ZM8.51133 13.285C8.32393 13.3529 8.19912 13.5309 8.19912 13.7302V21.2366C8.19912 21.437 8.32528 21.6157 8.51412 21.6828L10.8363 22.508C11.1458 22.618 11.4705 22.3872 11.4684 22.0588L11.4099 12.9068C11.4078 12.5796 11.0826 12.3531 10.775 12.4646L8.51133 13.285ZM1.59417 15.5125C1.43071 15.5092 1.27712 15.5905 1.18786 15.7275L0.172466 17.2858C0.0680395 17.446 0.070274 17.6534 0.17813 17.8113L1.18755 19.2898C1.26239 19.3994 1.37981 19.4726 1.51119 19.4915L6.43978 20.2008C6.72356 20.2417 6.97826 20.023 6.9808 19.7363L7.01307 16.09C7.01537 15.8305 6.80846 15.6176 6.54906 15.6123L1.59417 15.5125Z" fill="white"/>
<path d="M32.777 8.40066C32.7055 8.39445 32.6765 8.3326 32.6765 8.26088V0.473572C32.6765 0.212025 32.8885 0 33.1501 0L36.061 0C36.3225 0 36.5346 0.212026 36.5346 0.473572V7.54813C36.5346 7.7809 36.367 7.9788 36.1369 8.01397C35.2708 8.14633 33.2534 8.44207 32.777 8.40066Z" fill="white"/>
</svg>
