<svg width="50" height="50" viewBox="0 0 50 50" fill="none" xmlns="http://www.w3.org/2000/svg">
<path d="M20.8334 31.25L31.6459 25L20.8334 18.75V31.25ZM44.9168 14.9375C45.1876 15.9166 45.3751 17.2291 45.5001 18.8958C45.6459 20.5625 45.7084 22 45.7084 23.25L45.8334 25C45.8334 29.5625 45.5001 32.9166 44.9168 35.0625C44.3959 36.9375 43.1876 38.1458 41.3126 38.6666C40.3334 38.9375 38.5418 39.125 35.7918 39.25C33.0834 39.3958 30.6042 39.4583 28.3126 39.4583L25.0001 39.5833C16.2709 39.5833 10.8334 39.25 8.68758 38.6666C6.81258 38.1458 5.60425 36.9375 5.08341 35.0625C4.81258 34.0833 4.62508 32.7708 4.50008 31.1041C4.35425 29.4375 4.29175 28 4.29175 26.75L4.16675 25C4.16675 20.4375 4.50008 17.0833 5.08341 14.9375C5.60425 13.0625 6.81258 11.8541 8.68758 11.3333C9.66675 11.0625 11.4584 10.875 14.2084 10.75C16.9167 10.6041 19.3959 10.5416 21.6876 10.5416L25.0001 10.4166C33.7292 10.4166 39.1668 10.75 41.3126 11.3333C43.1876 11.8541 44.3959 13.0625 44.9168 14.9375Z" fill="white"/>
</svg>
